
<svg style="position: absolute; width: 0; height: 0; overflow: hidden;" version="1.1" xmlns="http://www.w3.org/2000/svg" xmlns:xlink="http://www.w3.org/1999/xlink">
<defs>

<symbol id="icon-home" viewBox="0 0 24 24">
<title>icon home</title>
<path d="M42,48H28V35h-8v13H6V27c0-0.552,0.447-1,1-1s1,0.448,1,1v19h10V33h12v13h10V28c0-0.552,0.447-1,1-1s1,0.448,1,1V48z"></path>
<path d="M47,27c-0.249,0-0.497-0.092-0.691-0.277L24,5.384L1.691,26.723c-0.399,0.381-1.032,0.368-1.414-0.031     c-0.382-0.399-0.367-1.032,0.031-1.414L24,2.616l23.691,22.661c0.398,0.382,0.413,1.015,0.031,1.414     C47.526,26.896,47.264,27,47,27z"></path>
<path d="M39,15c-0.553,0-1-0.448-1-1V8h-6c-0.553,0-1-0.448-1-1s0.447-1,1-1h8v8C40,14.552,39.553,15,39,15z"></path>
</symbol>

<symbol id="icon-location" viewBox="0 0 24 24">
<title>icon location</title>
<path d="M-200-320.3l-0.9-1.1c-0.6-0.8-15.9-18.7-15.9-29.4c0-9.3,7.6-16.8,16.8-16.8     s16.8,7.6,16.8,16.8c0,10.7-15.3,28.7-15.9,29.4L-200-320.3L-200-320.3z M-200-365.3c-8,0-14.4,6.5-14.4,14.4     c0,8.4,11.1,22.7,14.4,26.8c3.3-4.1,14.4-18.3,14.4-26.8C-185.6-358.8-192-365.3-200-365.3L-200-365.3z"></path>
<path d="M-200-344.4c-3.5,0-6.4-2.9-6.4-6.4s2.9-6.4,6.4-6.4s6.4,2.9,6.4,6.4S-196.5-344.4-200-344.4     L-200-344.4z M-200-354.8c-2.2,0-4,1.8-4,4s1.8,4,4,4c2.2,0,4-1.8,4-4S-197.8-354.8-200-354.8L-200-354.8z" ></path>
</symbol>

<symbol id="icon-mail" viewBox="0 0 24 24">
<title>icon mail</title>
<path d="M28,5H4C1.791,5,0,6.792,0,9v13c0,2.209,1.791,4,4,4h24c2.209,0,4-1.791,4-4V9  C32,6.792,30.209,5,28,5z M2,10.25l6.999,5.25L2,20.75V10.25z M30,22c0,1.104-0.898,2-2,2H4c-1.103,0-2-0.896-2-2l7.832-5.875  l4.368,3.277c0.533,0.398,1.166,0.6,1.8,0.6c0.633,0,1.266-0.201,1.799-0.6l4.369-3.277L30,22L30,22z M30,20.75l-7-5.25l7-5.25  V20.75z M17.199,18.602c-0.349,0.262-0.763,0.4-1.199,0.4c-0.436,0-0.851-0.139-1.2-0.4L10.665,15.5l-0.833-0.625L2,9.001V9  c0-1.103,0.897-2,2-2h24c1.102,0,2,0.897,2,2L17.199,18.602z" ></path>
</symbol>

<symbol id="icon-tel" viewBox="0 0 24 24">
<title>icon tel</title>
<path d="M415.9,335.5c-14.6-15-56.1-43.1-83.3-43.1c-6.3,0-11.8,1.4-16.3,4.3c-13.3,8.5-23.9,15.1-29,15.1c-2.8,0-5.8-2.5-12.4-8.2  l-1.1-1c-18.3-15.9-22.2-20-29.3-27.4l-1.8-1.9c-1.3-1.3-2.4-2.5-3.5-3.6c-6.2-6.4-10.7-11-26.6-29l-0.7-0.8  c-7.6-8.6-12.6-14.2-12.9-18.3c-0.3-4,3.2-10.5,12.1-22.6c10.8-14.6,11.2-32.6,1.3-53.5c-7.9-16.5-20.8-32.3-32.2-46.2l-1-1.2  c-9.8-12-21.2-18-33.9-18c-14.1,0-25.8,7.6-32,11.6c-0.5,0.3-1,0.7-1.5,1c-13.9,8.8-24,20.9-27.8,33.2c-5.7,18.5-9.5,42.5,17.8,92.4  c23.6,43.2,45,72.2,79,107.1c32,32.8,46.2,43.4,78,66.4c35.4,25.6,69.4,40.3,93.2,40.3c22.1,0,39.5,0,64.3-29.9  C442.3,370.8,431.5,351.6,415.9,335.5z M404.4,391.4c-20,24.2-31.5,24.2-52.3,24.2c-20.3,0-51.8-14-84.2-37.3  c-31-22.4-44.8-32.7-75.9-64.6c-32.9-33.7-53.6-61.8-76.4-103.5c-24.1-44.1-21.4-63.4-16.5-79.3c2.6-8.5,10.4-17.6,21-24.2  c0.5-0.3,1-0.7,1.6-1c5.3-3.4,14.1-9.1,23.7-9.1c8,0,15.1,4,21.9,12.3l1,1.2c25.5,31.2,45.4,58.8,30.4,79.2  c-10.6,14.3-16.2,24-15.3,34c0.8,9.7,7.3,17,17.1,28l0.7,0.8c16.1,18.2,20.7,23,27.1,29.5c1.1,1.1,2.2,2.3,3.5,3.6l1.8,1.9  c7.4,7.7,11.5,11.9,30.3,28.4l1.1,1c8,7,13.9,12.1,22.5,12.1c8.9,0,18.7-5.6,37.3-17.5c1.9-1.2,4.6-1.9,8-1.9  c21.7,0,59.1,24.8,72.2,38.3C417,359.7,423,368.9,404.4,391.4z" ></path>
</symbol>

</defs>
</svg>
