<?xml version="1.0" encoding="utf-8"?>
<svg version="1.1" id="Layer_1" xmlns="http://www.w3.org/2000/svg" xmlns:xlink="http://www.w3.org/1999/xlink" x="0px" y="0px"
	 viewBox="0 0 1060 400" style="enable-background:new 0 0 1060 400;" xml:space="preserve">
<style type="text/css">
	.st0{fill: none;}
	.st1{fill:#212121;}
</style>
<g>
	<g>
		<path class="st0" d="M8,10c0-1.3,0-2.7,0-4c347,0,693.9,0,1040.9,0c0,129,0,258,0,387c-347,0-693.9,0-1040.9,0C8,266,8,139,8,12
			c0.7,1.3,1.5,2.5,2.1,3.8c9.4,21.8,18.7,43.5,28.1,65.3c0.7,1.7,1.7,3.3,3.1,6C47.9,72,54,58.1,60.5,43.3
			c6.5,15,12.6,28.9,19.2,43.9c1.3-2.6,2.1-4,2.7-5.4c9.5-22.3,18.8-44.6,28.4-66.8c2-4.6,0.4-6.3-4.5-7.3
			C97.5,27.8,88.8,48,79.6,69c-5.3-12.2-10.2-23.3-14.9-34.4c-0.5-1.1,0.1-2.8,0.6-4.1c2.5-6.1,5.2-12.1,8-18.5
			c-2.2-1.1-4.1-2.1-6.3-3.3c-2.2,5-4.2,9.7-6.6,15.1c-2.6-5.5-4.7-10.2-7-15.1c-2.3,1-4,1.8-6.2,2.7c1,2.3,1.6,4.3,2.6,6.1
			c5.6,9.9,7.9,19.8,0.6,29.9c-0.9,1.3-1.2,3.1-1.9,4.6c-2.4,5.3-4.8,10.7-7.6,16.9C31.9,48,23.2,27.9,14.4,7.5
			C11.9,8.4,10,9.2,8,10z M575.2,391.5c3.8,0,7.1,0,10,0c0-44.3,0-88.1,0-133.5c-19.3,24-37.6,46.8-56.2,70
			c-18.7-23.2-36.9-45.8-55.8-69.2c0,45.1,0,88.9,0,133c3,0,5.7,0,9,0c0-34.9,0-69.5,0-105.5c16,19.8,31.2,38.5,46.8,57.7
			c15.5-19.1,30.5-37.6,46.2-57.1C575.2,322.5,575.2,356.8,575.2,391.5z M529,115.9c-18.2,45.4-35.9,89.5-53.6,133.6
			c8.3,3.9,8.8,3.7,11.9-3.9c5.7-14.1,11.5-28.2,17.2-42.4c1.1-2.9,2.5-4.1,5.8-4.1c12.3,0.2,24.7,0.2,37,0c3.1,0,4.7,0.9,5.9,3.9
			c4.2,10.6,8.7,21.2,13.1,31.7c2.4,5.8,4.9,11.5,7.5,17.5c3.3-1.1,6.2-2.1,9.2-3.1C565.1,204.9,547.3,161,529,115.9z M1015.1,56.4
			c8.5-10.5,16.4-20.3,25.2-31.3c0,20,0,38.7,0,57.5c2.6,0,4.6,0,6.5,0c0-25.4,0-50.4,0-75.4c-0.4-0.1-0.7-0.2-1.1-0.3
			c-10.2,12.3-20.3,24.7-30.7,37.3c-10.6-12.9-20.7-25.2-30.9-37.5c-0.3,0.2-0.7,0.4-1,0.6c0,25.1,0,50.3,0,75.3c2.4,0,4.4,0,6.9,0
			c0-18.9,0-37.4,0-57.2C998.8,36.2,1006.7,46,1015.1,56.4z M277.9,52.9c2.6-2.2,5.2-3.9,7.1-6.1c6.4-7.5,8-16.2,3.6-25.1
			C284.3,13,276.8,8.4,267,8.1c-5.2-0.2-10.3,0.2-15.5-0.1c-4.2-0.3-5.4,1.1-5.3,5.3c0.2,21.5,0.1,43,0.1,64.5c0,1.6,0.1,3.2,0.2,5
			c2.6,0,4.7,0,7.3,0c0-9.4,0-18.4,0-28.1c3.5,0,6.5,0.3,9.4-0.1c4.6-0.5,7.7,1.1,10.4,5c4.6,6.7,10.2,12.7,14.8,19.4
			c2.9,4.3,6.3,4.5,11.8,3.2C292.5,72.2,285.3,62.6,277.9,52.9z M489.6,44.2c0,13.1,0,25.8,0,38.6c2.7,0,4.8,0,7.3,0
			c0-2,0-3.6,0-5.2c0-21.1,0-42.3,0-63.4c0-6.5-0.2-6.7-7.4-5.2c0,9.1,0,18.3,0,27.7c-14.8,0-29,0-43.7,0c0-7.7,0-15.1,0-22.6
			c0-6.5-0.2-6.6-6.8-5.3c0,24.7,0,49.4,0,74.1c2.3,0,4.3,0,6.8,0c0-13,0-25.7,0-38.6C460.5,44.2,474.6,44.2,489.6,44.2z
			 M394.3,78.4c-12.6-11.7-25.3-23.3-38.2-35.2c11.7-10.5,23-20.6,34.3-30.8c-2.8-4.5-5.2-5.7-9.2-1.8c-5.1,5.2-10.8,9.9-16.3,14.7
			c-4.7,4.2-9.5,8.4-15.3,13.5c0-11.2,0-21,0-30.6c-2.5,0-4.4,0-6.4,0c0,25,0,49.7,0,74.4c2.3,0,4.2,0,6.8,0c0-11.4,0-22.5,0-34.9
			C362,59,372.9,69.1,383.8,79.3C388.8,84,388.8,84,394.3,78.4z M202.7,8.1c-13.1,0-25.9,0.1-38.6-0.1c-3.9-0.1-5.1,1-5.1,5.1
			c0.2,21.8,0.1,43.6,0.1,65.4c0,1.4,0.2,2.8,0.3,4.3c15.4,0,30.3,0,45.3,0c0-2.4,0-4.4,0-6.9c-12.8,0-25.2,0-37.7,0
			c0-11.2,0-21.9,0-33.1c8.1,0,15.9,0,23.7,0c0-2.6,0-4.6,0-7.2c-8.1,0-15.8,0-23.8,0c0-7,0-13.4,0-20.5c12.1,0,24,0,35.8,0
			C202.7,12.4,202.7,10.5,202.7,8.1z M764.6,11.7c-11.5-4.6-23.2-6-35.2-1.7c-10.6,3.8-15.4,12.1-13.5,22.5
			c1.5,8.4,10.4,15.1,20.2,15.6c4.1,0.2,8.3,0.7,12.3,1.5c5.4,1,9.1,4.5,10.3,9.7c1.3,5.5-1.3,10.3-5.8,13.4
			c-2.6,1.8-6.1,3.4-9.1,3.3c-7.7-0.3-15.4-1.3-23.1-2.6c-2.9-0.5-3.9,0.2-4.7,2.6c-0.8,2.5,0.2,3.5,2.6,4.3c9.5,3,19,4.4,28.9,2.8
			c10.6-1.8,19.5-11.5,19.3-21c-0.2-10-8.4-18.5-19.4-20c-4.4-0.6-8.9-0.8-13.3-1.7c-6.4-1.3-10.7-6.1-11.1-11.9
			c-0.3-4.7,3.1-9.2,9.3-11.6c7.9-3.1,16.1-2.8,23.9-0.1C761.2,18.3,763.6,17.3,764.6,11.7z M544.9,8.3c0,15.4,0,30.2,0,45
			c0,17,13.5,30.7,30.2,30.5c18.7-0.3,30.7-15.3,30.2-29.9c-0.5-14-0.1-27.9-0.1-41.9c0-1.2-0.3-2.5-0.4-3.7
			c-6.8-0.4-6.8-0.4-6.8,5.8c0,14,0.1,28-0.2,42c-0.1,3.3-1.3,6.9-3,9.7c-5.4,8.7-16.4,12.6-26.1,9.8c-9.8-2.8-16.6-11.8-16.7-22.3
			c-0.1-8.8,0-17.7,0-26.5c0-6.1,0-12.2,0-18.5C549.4,8.3,547.5,8.3,544.9,8.3z M877.6,82.2c4.7,2.7,7.2,2.4,9-2.8
			c2.4-7.4,5.6-14.5,8.9-21.6c0.7-1.4,3-2.8,4.7-3c5.6-0.4,11.3,0,17-0.2c2.7-0.1,4.1,0.9,5.1,3.5c2.8,7.1,5.9,14,8.9,21
			c2.4,5.5,3.1,5.7,9,2.1c-10.2-24.8-20.4-49.6-30.7-74.4c-0.5,0-1,0-1.5-0.1C897.8,31.9,887.7,57,877.6,82.2z M653.3,8.5
			c0,25,0,49.6,0,74.3c2.6,0,4.9,0,7.6,0c0-2.1,0-3.9,0-5.6c0-20.9,0-41.9,0-62.8C660.9,7.6,660.9,7.6,653.3,8.5z"/>
		<path class="st1" d="M8,10c2-0.8,3.9-1.6,6.4-2.5C23.2,27.9,31.9,48,40.9,69.1c2.8-6.2,5.2-11.5,7.6-16.9c0.7-1.5,0.9-3.3,1.9-4.6
			c7.3-10.2,5-20-0.6-29.9c-1-1.8-1.7-3.9-2.6-6.1c2.2-1,4-1.7,6.2-2.7c2.3,4.9,4.5,9.6,7,15.1c2.4-5.4,4.4-10.1,6.6-15.1
			c2.3,1.2,4.1,2.1,6.3,3.3c-2.8,6.4-5.5,12.4-8,18.5c-0.5,1.3-1.1,3-0.6,4.1c4.7,11.1,9.6,22.2,14.9,34.4
			C88.8,48,97.5,27.8,106.3,7.6c4.9,1,6.5,2.7,4.5,7.3c-9.6,22.2-19,44.5-28.4,66.8c-0.6,1.5-1.4,2.8-2.7,5.4
			c-6.6-15-12.6-28.9-19.2-43.9C54,58.1,47.9,72,41.3,87.1c-1.4-2.7-2.4-4.3-3.1-6c-9.4-21.8-18.7-43.5-28.1-65.3
			C9.5,14.5,8.7,13.3,8,12C8,11.3,8,10.7,8,10z"/>
		<path class="st1" d="M575.2,391.5c0-34.7,0-69,0-104.7c-15.7,19.4-30.7,38-46.2,57.1c-15.5-19.2-30.8-37.9-46.8-57.7
			c0,35.9,0,70.6,0,105.5c-3.2,0-6,0-9,0c0-44.1,0-87.9,0-133c18.9,23.5,37.1,46.1,55.8,69.2c18.6-23.1,36.9-46,56.2-70
			c0,45.4,0,89.2,0,133.5C582.3,391.5,579.1,391.5,575.2,391.5z"/>
		<path class="st1" d="M529,115.9c18.3,45.2,36.1,89,54,133.3c-3,1-5.9,2-9.2,3.1c-2.6-6-5.1-11.8-7.5-17.5
			c-4.4-10.5-8.9-21.1-13.1-31.7c-1.2-3-2.8-4-5.9-3.9c-12.3,0.2-24.7,0.2-37,0c-3.3-0.1-4.7,1.2-5.8,4.1
			c-5.6,14.2-11.4,28.3-17.2,42.4c-3.1,7.7-3.6,7.9-11.9,3.9C493.1,205.4,510.8,161.2,529,115.9z M528.9,140.3
			c-6.6,17.2-12.7,33.3-18.9,49.6c12.6,0,24.7,0,37.3,0C541.2,173.4,535.3,157.4,528.9,140.3z"/>
		<path class="st1" d="M1015.1,56.4c-8.4-10.4-16.3-20.2-25-30.9c0,19.7,0,38.2,0,57.2c-2.5,0-4.6,0-6.9,0c0-25.1,0-50.2,0-75.3
			c0.3-0.2,0.7-0.4,1-0.6c10.2,12.3,20.3,24.7,30.9,37.5c10.4-12.6,20.5-25,30.7-37.3c0.4,0.1,0.7,0.2,1.1,0.3c0,25,0,50,0,75.4
			c-1.9,0-3.9,0-6.5,0c0-18.8,0-37.5,0-57.5C1031.5,36.1,1023.5,46,1015.1,56.4z"/>
		<path class="st1" d="M277.9,52.9c7.3,9.7,14.6,19.2,22.2,29.3c-5.5,1.3-8.9,1.1-11.8-3.2c-4.5-6.7-10.2-12.7-14.8-19.4
			c-2.7-3.9-5.7-5.5-10.4-5c-2.9,0.3-5.9,0.1-9.4,0.1c0,9.6,0,18.7,0,28.1c-2.6,0-4.7,0-7.3,0c-0.1-1.8-0.2-3.4-0.2-5
			c0-21.5,0.1-43-0.1-64.5c0-4.2,1.2-5.6,5.3-5.3c5.1,0.3,10.3-0.1,15.5,0.1c9.8,0.3,17.3,4.9,21.6,13.6c4.4,8.9,2.8,17.5-3.6,25.1
			C283.1,49,280.6,50.7,277.9,52.9z M254.1,14.8c0,11.2,0,21.6,0,32.4c4.9,0,9.5,0.1,14.2,0c8.4-0.3,14.2-5.9,15.2-14.2
			c0.9-7.4-4.2-15.2-11.8-16.8C266.1,15,260.2,15.2,254.1,14.8z"/>
		<path class="st1" d="M489.6,44.2c-15.1,0-29.2,0-43.8,0c0,12.9,0,25.7,0,38.6c-2.5,0-4.5,0-6.8,0c0-24.7,0-49.4,0-74.1
			c6.7-1.3,6.8-1.2,6.8,5.3c0,7.4,0,14.9,0,22.6c14.7,0,28.9,0,43.7,0c0-9.4,0-18.7,0-27.7c7.2-1.4,7.4-1.3,7.4,5.2
			c0,21.1,0,42.3,0,63.4c0,1.6,0,3.3,0,5.2c-2.5,0-4.6,0-7.3,0C489.6,70,489.6,57.2,489.6,44.2z"/>
		<path class="st1" d="M394.3,78.4c-5.5,5.6-5.5,5.6-10.5,0.9C372.9,69.1,362,59,350.1,47.9c0,12.4,0,23.5,0,34.9
			c-2.6,0-4.5,0-6.8,0c0-24.7,0-49.4,0-74.4c2,0,3.9,0,6.4,0c0,9.7,0,19.4,0,30.6c5.8-5.1,10.5-9.3,15.3-13.5
			c5.5-4.9,11.1-9.5,16.3-14.7c3.9-4,6.3-2.8,9.2,1.8c-11.3,10.1-22.6,20.3-34.3,30.8C369,55.1,381.6,66.8,394.3,78.4z"/>
		<path class="st1" d="M202.7,8.1c0,2.4,0,4.4,0,7c-11.8,0-23.7,0-35.8,0c0,7.1,0,13.5,0,20.5c8,0,15.7,0,23.8,0c0,2.6,0,4.7,0,7.2
			c-7.8,0-15.6,0-23.7,0c0,11.2,0,21.9,0,33.1c12.5,0,24.9,0,37.7,0c0,2.5,0,4.5,0,6.9c-14.9,0-29.9,0-45.3,0
			c-0.1-1.4-0.3-2.8-0.3-4.3c0-21.8,0.1-43.6-0.1-65.4c0-4,1.2-5.1,5.1-5.1C176.9,8.2,189.7,8.1,202.7,8.1z"/>
		<path class="st1" d="M764.6,11.7c-1,5.6-3.4,6.6-8.4,4.9c-7.8-2.7-16-2.9-23.9,0.1c-6.2,2.4-9.7,6.9-9.3,11.6
			c0.4,5.7,4.7,10.6,11.1,11.9c4.4,0.9,8.9,1.1,13.3,1.7c11,1.5,19.2,9.9,19.4,20c0.2,9.6-8.7,19.2-19.3,21
			c-9.9,1.7-19.5,0.2-28.9-2.8c-2.4-0.8-3.4-1.8-2.6-4.3c0.8-2.4,1.9-3.1,4.7-2.6c7.6,1.3,15.3,2.3,23.1,2.6c3,0.1,6.5-1.5,9.1-3.3
			c4.5-3.1,7.1-7.9,5.8-13.4c-1.2-5.1-5-8.6-10.3-9.7c-4.1-0.8-8.2-1.3-12.3-1.5c-9.8-0.5-18.7-7.2-20.2-15.6
			c-1.9-10.4,3-18.7,13.5-22.5C741.4,5.7,753.1,7.1,764.6,11.7z"/>
		<path class="st1" d="M544.9,8.3c2.6,0,4.5,0,7.1,0c0,6.3,0,12.4,0,18.5c0,8.8-0.1,17.7,0,26.5c0.1,10.5,6.9,19.5,16.7,22.3
			c9.7,2.8,20.7-1.1,26.1-9.8c1.7-2.8,2.9-6.4,3-9.7c0.4-14,0.2-28,0.2-42c0-6.2,0-6.2,6.8-5.8c0.1,1.2,0.4,2.4,0.4,3.7
			c0,14-0.4,28,0.1,41.9c0.5,14.6-11.5,29.6-30.2,29.9C558.4,84,545,70.3,544.9,53.3C544.9,38.5,544.9,23.7,544.9,8.3z"/>
		<path class="st1" d="M877.6,82.2c10.1-25.2,20.2-50.3,30.3-75.3c0.5,0,1,0,1.5,0.1c10.2,24.8,20.5,49.6,30.7,74.4
			c-5.9,3.6-6.6,3.4-9-2.1c-3-7-6.1-14-8.9-21c-1-2.6-2.4-3.6-5.1-3.5c-5.7,0.2-11.3-0.2-17,0.2c-1.7,0.1-4,1.5-4.7,3
			c-3.3,7.1-6.5,14.2-8.9,21.6C884.8,84.6,882.3,84.9,877.6,82.2z M908.6,23c-3.4,8.9-6.3,16.6-9.3,24.6c6.5,0,12.3,0,18.4,0
			C914.8,39.6,911.9,31.9,908.6,23z"/>
		<path class="st1" d="M653.3,8.5c7.6-0.8,7.6-0.8,7.6,5.8c0,20.9,0,41.9,0,62.8c0,1.8,0,3.6,0,5.6c-2.8,0-5,0-7.6,0
			C653.3,58.1,653.3,33.4,653.3,8.5z"/>
		<path class="st0" d="M528.9,140.3c6.4,17.1,12.3,33.1,18.5,49.6c-12.7,0-24.7,0-37.3,0C516.2,173.6,522.4,157.5,528.9,140.3z"/>
		<path class="st0" d="M254.1,14.8c6.1,0.4,12,0.2,17.5,1.3c7.6,1.6,12.7,9.4,11.8,16.8c-1,8.3-6.8,13.9-15.2,14.2
			c-4.6,0.2-9.3,0-14.2,0C254.1,36.4,254.1,26.1,254.1,14.8z"/>
		<path class="st0" d="M908.6,23c3.3,8.9,6.1,16.5,9.1,24.6c-6.2,0-11.9,0-18.4,0C902.3,39.7,905.2,32,908.6,23z"/>
	</g>
</g>
</svg>
