<?xml version="1.0" encoding="utf-8"?>
<svg version="1.1" id="Layer_1" xmlns="http://www.w3.org/2000/svg" xmlns:xlink="http://www.w3.org/1999/xlink" x="0px" y="0px"
	 viewBox="0 0 1060 400" style="enable-background:new 0 0 1060 400;" xml:space="preserve">
<style type="text/css">
	.st0{fill-rule:evenodd;clip-rule:evenodd;fill:#FFFFFF;}
	.st1{fill-rule:evenodd;clip-rule:evenodd;}
</style>
<g>
	<g>
		<path class="st1" d="M8,10c1.967-0.775,3.935-1.551,6.437-2.538c8.765,20.398,17.419,40.537,26.482,61.629
			c2.781-6.194,5.19-11.522,7.56-16.867c0.671-1.513,0.939-3.283,1.878-4.583c7.335-10.153,5.031-20.028-0.552-29.922
			c-1.027-1.821-1.669-3.859-2.637-6.149c2.195-0.961,3.966-1.737,6.233-2.731c2.271,4.88,4.459,9.583,7.019,15.083
			c2.359-5.437,4.369-10.069,6.551-15.099c2.259,1.158,4.098,2.101,6.34,3.25c-2.791,6.388-5.477,12.391-8.012,18.456
			c-0.527,1.261-1.095,3.005-0.633,4.101c4.691,11.134,9.592,22.179,14.937,34.399C88.757,47.958,97.51,27.81,106.277,7.627
			c4.911,1.038,6.539,2.734,4.542,7.34c-9.618,22.193-18.974,44.499-28.443,66.755c-0.618,1.452-1.407,2.831-2.718,5.439
			C73.096,72.142,67.035,58.266,60.487,43.28c-6.479,14.813-12.566,28.737-19.163,43.824c-1.405-2.688-2.381-4.296-3.12-6.007
			C28.815,59.345,19.467,37.575,10.08,15.821c-0.571-1.326-1.381-2.55-2.08-3.822C8,11.333,8,10.666,8,10z"/>
		<path class="st1" d="M575.227,440.754c0-34.663,0-69.037,0-104.699c-15.748,19.444-30.748,37.965-46.23,57.081
			c-15.543-19.161-30.751-37.909-46.772-57.659c0,35.938,0,70.596,0,105.477c-3.227,0-5.979,0-8.971,0c0-44.055,0-87.896,0-132.963
			c18.906,23.471,37.104,46.062,55.763,69.226c18.59-23.136,36.941-45.978,56.231-69.983c0,45.377,0,89.235,0,133.523
			C582.279,440.754,579.066,440.754,575.227,440.754z"/>
		<path class="st1" d="M529.002,165.11c18.295,45.168,36.061,89.031,53.996,133.306c-3.021,1.016-5.893,1.98-9.218,3.1
			c-2.604-6.039-5.13-11.763-7.548-17.533c-4.418-10.537-8.898-21.057-13.071-31.69c-1.185-3.017-2.782-3.953-5.906-3.913
			c-12.329,0.159-24.664,0.188-36.991-0.016c-3.265-0.055-4.648,1.206-5.783,4.064c-5.609,14.17-11.437,28.256-17.153,42.383
			c-3.108,7.683-3.613,7.892-11.885,3.945C493.121,254.643,510.813,210.495,529.002,165.11z M528.913,189.557
			c-6.56,17.228-12.694,33.337-18.886,49.602c12.623,0,24.66,0,37.346,0C541.219,222.624,535.264,206.622,528.913,189.557z"/>
		<path class="st1" d="M1015.097,56.424c-8.427-10.438-16.315-20.211-24.981-30.947c0,19.721,0,38.242,0,57.166c-2.519,0-4.563,0-6.93,0
			c0-25.056,0-50.192,0-75.329c0.344-0.185,0.685-0.37,1.023-0.555c10.153,12.341,20.307,24.682,30.886,37.541
			c10.384-12.615,20.545-24.962,30.706-37.31c0.354,0.099,0.707,0.199,1.063,0.298c0,25.018,0,50.037,0,75.411
			c-1.885,0-3.947,0-6.532,0c0-18.819,0-37.518,0-57.529C1031.517,36.085,1023.548,45.956,1015.097,56.424z"/>
		<path class="st1" d="M277.949,52.943c7.323,9.682,14.551,19.24,22.195,29.347c-5.543,1.331-8.898,1.126-11.819-3.206
			c-4.545-6.739-10.177-12.742-14.78-19.447c-2.704-3.938-5.735-5.523-10.36-5.012c-2.914,0.324-5.893,0.061-9.374,0.061
			c0,9.633,0,18.708,0,28.065c-2.634,0-4.718,0-7.29,0c-0.08-1.771-0.216-3.386-0.217-5c-0.015-21.488,0.096-42.977-0.101-64.463
			c-0.039-4.173,1.161-5.579,5.334-5.307c5.142,0.335,10.327-0.06,15.485,0.11c9.813,0.325,17.296,4.942,21.573,13.644
			c4.371,8.892,2.769,17.524-3.584,25.066C283.121,49.042,280.554,50.712,277.949,52.943z M254.146,14.825
			c0,11.231,0,21.613,0,32.418c4.916,0,9.548,0.149,14.167-0.032c8.366-0.329,14.227-5.92,15.201-14.247
			c0.869-7.429-4.174-15.247-11.824-16.805C266.099,15.021,260.232,15.236,254.146,14.825z"/>
		<path class="st1" d="M489.648,44.168c-15.069,0-29.168,0-43.852,0c0,12.944,0,25.668,0,38.629c-2.535,0-4.484,0-6.824,0
			c0-24.701,0-49.401,0-74.089c6.672-1.327,6.842-1.196,6.845,5.271c0.004,7.445,0.001,14.891,0.001,22.592
			c14.73,0,28.89,0,43.703,0c0-9.431,0-18.662,0-27.749c7.209-1.446,7.375-1.32,7.375,5.222c0.004,21.148,0.002,42.297,0.002,63.446
			c0,1.633,0,3.267,0,5.228c-2.498,0-4.566,0-7.25,0C489.648,69.973,489.648,57.238,489.648,44.168z"/>
		<path class="st1" d="M394.279,78.428c-5.519,5.597-5.479,5.556-10.459,0.896c-10.894-10.192-21.827-20.339-33.729-31.42
			c0,12.367,0,23.517,0,34.896c-2.605,0-4.541,0-6.84,0c0-24.72,0-49.414,0-74.423c2.003,0,3.921,0,6.393,0
			c0,9.653,0,19.373,0,30.604c5.783-5.122,10.549-9.314,15.282-13.538c5.463-4.873,11.149-9.53,16.271-14.741
			c3.915-3.984,6.321-2.785,9.155,1.752c-11.285,10.127-22.607,20.288-34.271,30.752C369.004,55.122,381.638,66.771,394.279,78.428z
			"/>
		<path class="st1" d="M202.733,8.061c0,2.445,0,4.375,0,7.013c-11.784,0-23.652,0-35.79,0c0,7.113,0,13.523,0,20.488c7.978,0,15.728,0,23.827,0
			c0,2.601,0,4.653,0,7.208c-7.836,0-15.585,0-23.718,0c0,11.188,0,21.882,0,33.056c12.483,0,24.893,0,37.688,0
			c0,2.496,0,4.531,0,6.907c-14.942,0-29.854,0-45.289,0c-0.114-1.417-0.327-2.84-0.329-4.263
			c-0.021-21.812,0.087-43.624-0.108-65.434c-0.036-4.026,1.163-5.128,5.094-5.06C176.881,8.201,189.661,8.061,202.733,8.061z"/>
		<path class="st1" d="M764.638,11.73c-1.007,5.563-3.4,6.611-8.366,4.928c-7.818-2.651-15.964-2.938-23.877,0.128
			c-6.172,2.39-9.651,6.864-9.315,11.604c0.406,5.738,4.687,10.584,11.075,11.866c4.372,0.877,8.872,1.094,13.307,1.682
			c10.955,1.453,19.176,9.94,19.404,19.979c0.217,9.561-8.7,19.25-19.313,21.024c-9.893,1.654-19.456,0.215-28.921-2.772
			c-2.412-0.762-3.383-1.771-2.57-4.259c0.779-2.396,1.854-3.12,4.713-2.633c7.625,1.298,15.35,2.34,23.064,2.624
			c3.014,0.111,6.475-1.547,9.091-3.333c4.528-3.092,7.107-7.862,5.79-13.367c-1.225-5.121-4.959-8.648-10.327-9.669
			c-4.055-0.771-8.19-1.285-12.313-1.487c-9.812-0.482-18.658-7.188-20.168-15.574c-1.864-10.353,2.979-18.684,13.541-22.481
			C741.412,5.681,753.129,7.137,764.638,11.73z"/>
		<path class="st1" d="M544.943,8.301c2.578,0,4.498,0,7.051,0c0,6.268,0,12.378,0,18.489c0,8.827-0.067,17.655,0.018,26.481
			c0.103,10.507,6.907,19.534,16.683,22.331c9.748,2.79,20.741-1.089,26.134-9.804c1.742-2.815,2.923-6.447,3.006-9.739
			c0.352-13.981,0.194-27.975,0.219-41.963c0.012-6.217,0.006-6.217,6.812-5.8c0.131,1.172,0.389,2.422,0.392,3.672
			c0.028,13.977-0.359,27.966,0.121,41.925c0.504,14.637-11.504,29.624-30.186,29.901c-16.752,0.248-30.231-13.516-30.242-30.469
			C544.936,38.521,544.943,23.717,544.943,8.301z"/>
		<path class="st1" d="M877.593,82.178c10.143-25.226,20.206-50.266,30.272-75.307c0.508,0.017,1.016,0.034,1.521,0.051
			c10.229,24.813,20.458,49.625,30.665,74.381c-5.854,3.589-6.632,3.384-8.985-2.138c-2.983-7.001-6.104-13.95-8.859-21.041
			c-1.023-2.632-2.416-3.56-5.143-3.484c-5.653,0.157-11.33-0.178-16.968,0.187c-1.659,0.108-4.012,1.514-4.679,2.958
			c-3.262,7.053-6.488,14.181-8.876,21.557C884.842,84.601,882.324,84.875,877.593,82.178z M908.611,23.043
			c-3.369,8.917-6.283,16.634-9.308,24.633c6.532,0,12.259,0,18.447,0C914.751,39.588,911.907,31.923,908.611,23.043z"/>
		<path class="st1" d="M653.287,8.464c7.613-0.843,7.619-0.843,7.619,5.837c0.003,20.938,0.001,41.877,0.001,62.815c0,1.786,0,3.573,0,5.643
			c-2.755,0-5.004,0-7.62,0C653.287,58.066,653.287,33.419,653.287,8.464z"/>
		<path class="st0" d="M528.913,189.557c6.351,17.065,12.306,33.067,18.46,49.602c-12.686,0-24.723,0-37.346,0
			C516.219,222.895,522.354,206.785,528.913,189.557z"/>
		<path class="st0" d="M254.146,14.825c6.087,0.411,11.953,0.196,17.544,1.334c7.65,1.558,12.693,9.376,11.824,16.805
			c-0.974,8.327-6.835,13.918-15.201,14.247c-4.619,0.181-9.251,0.032-14.167,0.032C254.146,36.438,254.146,26.056,254.146,14.825z"
			/>
		<path class="st0" d="M908.611,23.043c3.296,8.879,6.14,16.545,9.142,24.633c-6.19,0-11.915,0-18.447,0
			C902.328,39.677,905.242,31.96,908.611,23.043z"/>
	</g>
</g>
</svg>
